<svg width="29" height="27" viewBox="0 0 29 27" fill="none" xmlns="http://www.w3.org/2000/svg">
<path d="M25.6489 1.70438C25.3267 0.70875 24.4244 0 23.3611 0H5.63889C4.57555 0 3.68944 0.70875 3.35111 1.70438L0 11.8125V25.3125C0 26.2406 0.725 27 1.61111 27H3.22222C4.10833 27 4.83333 26.2406 4.83333 25.3125V23.625H24.1667V25.3125C24.1667 26.2406 24.8917 27 25.7778 27H27.3889C28.275 27 29 26.2406 29 25.3125V11.8125L25.6489 1.70438ZM5.63889 18.5625C4.30167 18.5625 3.22222 17.4319 3.22222 16.0312C3.22222 14.6306 4.30167 13.5 5.63889 13.5C6.97611 13.5 8.05556 14.6306 8.05556 16.0312C8.05556 17.4319 6.97611 18.5625 5.63889 18.5625ZM23.3611 18.5625C22.0239 18.5625 20.9444 17.4319 20.9444 16.0312C20.9444 14.6306 22.0239 13.5 23.3611 13.5C24.6983 13.5 25.7778 14.6306 25.7778 16.0312C25.7778 17.4319 24.6983 18.5625 23.3611 18.5625ZM3.22222 10.125L5.63889 2.53125H23.3611L25.7778 10.125H3.22222Z" fill="black"/>
</svg>
