<svg width="27" height="27" viewBox="0 0 27 27" fill="none" xmlns="http://www.w3.org/2000/svg">
<path d="M19.2884 16.9764H18.0705L17.6388 16.5601C19.1497 14.8026 20.0592 12.521 20.0592 10.0389C20.0592 4.50432 15.573 0.0180664 10.0384 0.0180664C4.50383 0.0180664 0.0175781 4.50432 0.0175781 10.0389C0.0175781 15.5735 4.50383 20.0597 10.0384 20.0597C12.5205 20.0597 14.8022 19.1502 16.5597 17.6393L16.9759 18.071V19.2889L24.6842 26.9818L26.9813 24.6847L19.2884 16.9764ZM10.0384 16.9764C6.19966 16.9764 3.10091 13.8776 3.10091 10.0389C3.10091 6.20015 6.19966 3.1014 10.0384 3.1014C13.8772 3.1014 16.9759 6.20015 16.9759 10.0389C16.9759 13.8776 13.8772 16.9764 10.0384 16.9764Z" fill="black" fill-opacity="0.56"/>
</svg>
