<svg width="30" height="36" viewBox="0 0 30 36" fill="none" xmlns="http://www.w3.org/2000/svg">
<path d="M26.0833 3.75016H19.465C18.8 1.9135 17.0583 0.583496 15 0.583496C12.9417 0.583496 11.2 1.9135 10.535 3.75016H3.91667C2.175 3.75016 0.75 5.17516 0.75 6.91683V32.2502C0.75 33.9918 2.175 35.4168 3.91667 35.4168H26.0833C27.825 35.4168 29.25 33.9918 29.25 32.2502V6.91683C29.25 5.17516 27.825 3.75016 26.0833 3.75016ZM15 3.75016C15.8708 3.75016 16.5833 4.46266 16.5833 5.3335C16.5833 6.20433 15.8708 6.91683 15 6.91683C14.1292 6.91683 13.4167 6.20433 13.4167 5.3335C13.4167 4.46266 14.1292 3.75016 15 3.75016ZM26.0833 32.2502H3.91667V6.91683H7.08333V11.6668H22.9167V6.91683H26.0833V32.2502Z" fill="black"/>
</svg>
